<svg width="805" height="805" viewBox="0 0 805 805" fill="none" xmlns="http://www.w3.org/2000/svg">
<path fill-rule="evenodd" clip-rule="evenodd" d="M443.47 296.055C443.47 218.988 507.787 157.583 584.158 159.101C658.41 160.579 719.337 221.161 719.338 296.071C719.338 339.502 698.87 378.034 667.291 403.074C693.589 423.392 712.355 453.29 718.12 488.102C731.733 570.302 668.373 645.324 584.943 645.326C536.354 645.326 491.509 619.216 467.522 576.961C437.214 523.568 407.076 470.075 376.943 416.591C346.808 363.104 316.677 309.62 286.374 256.237C272.72 232.184 247.192 217.324 219.533 217.324C172.127 217.324 135.969 260.003 143.732 306.881C149.898 344.112 182.113 371.459 219.783 371.46H220.375C221.265 371.443 222.162 371.433 223.061 371.433C223.96 371.433 224.856 371.443 225.746 371.46H229.157C230.805 371.46 232.424 371.599 233.998 371.863C304.352 377.425 360.999 436.147 361 508.43C361 585.498 296.689 646.903 220.318 645.384C146.065 643.908 85.1375 583.325 85.137 508.414C85.1372 464.984 105.597 426.446 137.174 401.406C110.88 381.087 92.1203 351.191 86.3558 316.383C72.7432 234.182 136.102 159.165 219.533 159.165C268.123 159.165 312.968 185.274 336.954 227.53C367.354 281.084 397.42 334.457 427.496 387.842C457.574 441.228 487.664 494.628 518.102 548.249C531.756 572.302 557.284 587.161 584.943 587.161C632.348 587.159 668.502 544.481 660.74 497.604C654.573 460.374 622.361 433.026 584.694 433.025H584.1L581.415 433.057C580.513 433.057 579.616 433.042 578.73 433.025H575.319C573.663 433.025 572.041 432.884 570.462 432.618C500.115 427.048 443.47 368.334 443.47 296.055ZM219.004 429.694C177.009 431.808 143.298 466.548 143.297 508.414C143.298 551.018 178.247 586.375 221.477 587.235C265.958 588.118 302.846 552.25 302.846 508.43C302.845 466.556 269.122 431.809 227.117 429.694L225.111 429.62H221.011L219.004 429.694ZM582.998 217.25C538.517 216.367 501.63 252.235 501.63 296.055C501.631 338.595 536.433 373.777 579.366 374.866H583.465C626.387 373.777 661.179 338.601 661.179 296.071C661.177 253.468 626.228 218.11 582.998 217.25Z" fill="#FE0600"/>
</svg>
